<svg width="200" height="30" viewBox="0 0 200 30" fill="none" xmlns="http://www.w3.org/2000/svg">
  <path d="M0 0V30H15C22 30 25 27 25 22C25 18 23 16 20 15C22.5 14 24 12 24 9C24 4 21 0 15 0H0ZM7 6H12C14 6 16 7 16 9C16 11 14 12 12 12H7V6ZM7 18H12C14 18 16 19 16 21C16 23 14 24 12 24H7V18Z" fill="#3D0C11"/>
  <path d="M30 0V30H37V0H30ZM42 0V30H49V18L57 30H65L56 17L64 0H57L49 13V0H42ZM70 0V30H87V24H77V18H85V12H77V6H87V0H70ZM92 0V30H107C114 30 117 27 117 22C117 18 115 16 112 15C114.5 14 116 12 116 9C116 4 113 0 107 0H92ZM99 6H104C106 6 108 7 108 9C108 11 106 12 104 12H99V6ZM99 18H104C106 18 108 19 108 21C108 23 106 24 104 24H99V18Z" fill="#3D0C11"/>
  <path d="M122 0V30H137C144 30 147 27 147 22C147 18 145 16 142 15C144.5 14 146 12 146 9C146 4 143 0 137 0H122ZM129 6H134C136 6 138 7 138 9C138 11 136 12 134 12H129V6ZM129 18H134C136 18 138 19 138 21C138 23 136 24 134 24H129V18Z" fill="#3D0C11"/>
  <path d="M152 0V30H159V0H152ZM164 0V30H171V18L179 30H187L178 17L186 0H179L171 13V0H164Z" fill="#3D0C11"/>
</svg> 