<svg width="200" height="40" viewBox="0 0 200 40" fill="none" xmlns="http://www.w3.org/2000/svg">
  <path d="M0 0V40H10V25H20V15H10V10H25V0H0Z" fill="#3D0C11"/>
  <path d="M35 0V40H45V0H35Z" fill="#3D0C11"/>
  <path d="M55 0V40H65V25L75 40H85L72.5 20L85 0H75L65 15V0H55Z" fill="#3D0C11"/>
  <path d="M95 0V40H105V25L115 40H125L112.5 20L125 0H115L105 15V0H95Z" fill="#3D0C11"/>
  <path d="M135 0V40H145V25H155V15H145V10H160V0H135Z" fill="#3D0C11"/>
  <path d="M170 0V40H180V25L190 40H200L187.5 20L200 0H190L180 15V0H170Z" fill="#3D0C11"/>
</svg> 