<svg width="100" height="27" viewBox="0 0 100 27" fill="none" xmlns="http://www.w3.org/2000/svg">
  <path d="M0 0.5V26.5H7.5V19H15V12.5H7.5V7H17.5V0.5H0ZM22.5 0.5V26.5H40V20H30V0.5H22.5ZM45 0.5V26.5H62.5V20H52.5V15.5H60V10H52.5V7H62.5V0.5H45ZM67.5 0.5V26.5H82.5C89.5 26.5 92.5 23 92.5 19C92.5 15.5 90.5 13.5 87.5 12.5C90 11.5 91.5 9.5 91.5 7C91.5 3 88.5 0.5 82.5 0.5H67.5ZM75 7H80C82 7 83.5 8 83.5 9.5C83.5 11 82 12 80 12H75V7ZM75 17.5H80C82 17.5 83.5 18.5 83.5 20C83.5 21.5 82 22.5 80 22.5H75V17.5Z" fill="#3D0C11"/>
</svg> 