<svg width="250" height="30" viewBox="0 0 250 30" fill="none" xmlns="http://www.w3.org/2000/svg">
  <path d="M0 0L10 30H20L30 0H22L15 22L8 0H0Z" fill="#3D0C11"/>
  <path d="M35 0V30H60V24H43V18H55V12H43V6H60V0H35Z" fill="#3D0C11"/>
  <path d="M65 0V30H73V18L83 30H93L80 15L93 0H83L73 12V0H65Z" fill="#3D0C11"/>
  <path d="M98 0V30H106V0H98ZM111 0V30H119V18L129 30H139L126 15L139 0H129L119 12V0H111Z" fill="#3D0C11"/>
  <path d="M144 0V30H152V18L162 30H172L159 15L172 0H162L152 12V0H144Z" fill="#3D0C11"/>
  <path d="M177 0V30H202V24H185V18H197V12H185V6H202V0H177Z" fill="#3D0C11"/>
  <path d="M207 0V30H215V18L225 30H235L222 15L235 0H225L215 12V0H207Z" fill="#3D0C11"/>
  <path d="M240 0V30H248V0H240Z" fill="#3D0C11"/>
</svg> 