<svg width="150" height="40" viewBox="0 0 150 40" fill="none" xmlns="http://www.w3.org/2000/svg">
  <path d="M0 0L15 40H25L40 0H30L20 30L10 0H0Z" fill="#3D0C11"/>
  <path d="M45 0C38 0 35 3 35 8V32C35 37 38 40 45 40H55C62 40 65 37 65 32V8C65 3 62 0 55 0H45ZM45 8H55V32H45V8Z" fill="#3D0C11"/>
  <path d="M70 0V40H80V25L90 40H100L87.5 20L100 0H90L80 15V0H70Z" fill="#3D0C11"/>
  <path d="M105 0C98 0 95 3 95 8V32C95 37 98 40 105 40H115C122 40 125 37 125 32V8C125 3 122 0 115 0H105ZM105 8H115V32H105V8Z" fill="#3D0C11"/>
  <path d="M130 0V40H150V32H140V0H130Z" fill="#3D0C11"/>
</svg> 